<?xml version="1.0" encoding="UTF-8" standalone="no"?>
<!-- Generator: Adobe Illustrator 15.0.2, SVG Export Plug-In . SVG Version: 6.00 Build 0)  -->

<svg
   xmlns:dc="http://purl.org/dc/elements/1.1/"
   xmlns:cc="http://creativecommons.org/ns#"
   xmlns:rdf="http://www.w3.org/1999/02/22-rdf-syntax-ns#"
   xmlns:svg="http://www.w3.org/2000/svg"
   xmlns="http://www.w3.org/2000/svg"
   xmlns:sodipodi="http://sodipodi.sourceforge.net/DTD/sodipodi-0.dtd"
   xmlns:inkscape="http://www.inkscape.org/namespaces/inkscape"
   version="1.1"
   id="Layer_1"
   x="0px"
   y="0px"
   width="144px"
   height="72px"
   viewBox="0 0 144 72"
   enable-background="new 0 0 144 72"
   xml:space="preserve"
   sodipodi:docname="minimum-age.svg"
   inkscape:version="0.92.5 (2060ec1f9f, 2020-04-08)"><metadata
   id="metadata941"><rdf:RDF><cc:Work
       rdf:about=""><dc:format>image/svg+xml</dc:format><dc:type
         rdf:resource="http://purl.org/dc/dcmitype/StillImage" /></cc:Work></rdf:RDF></metadata><defs
   id="defs939" /><sodipodi:namedview
   pagecolor="#ffffff"
   bordercolor="#666666"
   borderopacity="1"
   objecttolerance="10"
   gridtolerance="10"
   guidetolerance="10"
   inkscape:pageopacity="0"
   inkscape:pageshadow="2"
   inkscape:window-width="1848"
   inkscape:window-height="1016"
   id="namedview937"
   showgrid="false"
   inkscape:zoom="9.0555556"
   inkscape:cx="71.889571"
   inkscape:cy="36"
   inkscape:window-x="72"
   inkscape:window-y="27"
   inkscape:window-maximized="1"
   inkscape:current-layer="Layer_1" />
<polygon
   fill="#FFFFFF"
   stroke="#231F20"
   stroke-width="6.3855"
   points="144,72 72.342,72 0,72 0,0 68.086,0 144,0 "
   id="polygon906" />
<line
   fill="none"
   stroke="#000000"
   stroke-width="4.257"
   stroke-linecap="round"
   x1="125.672"
   y1="47.21"
   x2="125.672"
   y2="24.376"
   id="line908" />
<line
   fill="none"
   stroke="#000000"
   stroke-width="4.257"
   stroke-linecap="round"
   x1="135.752"
   y1="35.793"
   x2="115.592"
   y2="35.793"
   id="line910" />
<g
   id="g918">
	<path
   fill="#231F20"
   d="M9.771,20.35l-0.023-0.027c-0.237,0.825-0.356,1.793-0.356,2.904c0,0.502,0.032,1.262,0.096,2.285   c0.062,1.022,0.095,1.785,0.095,2.285c0,1.078-0.111,2.017-0.333,2.825c-0.126-0.09-0.269-0.135-0.427-0.135   c-0.237,0-0.542,0.102-0.914,0.31c-0.372,0.206-0.605,0.307-0.7,0.307c-0.206,0-0.285-0.284-0.237-0.86v-3.387   c-0.127-1.005-0.19-2.062-0.19-3.172c0-1.183,0.071-2.294,0.214-3.334c-0.127-0.107-0.189-0.287-0.189-0.538   c0-0.269,0.055-0.474,0.166-0.619c0.11,0.018,0.229,0.026,0.355,0.026c0.19,0,0.455-0.026,0.796-0.081   c0.34-0.054,0.581-0.081,0.724-0.081c0.222,0,0.411,0.038,0.57,0.109c0,0.035,0,0.241,0,0.617c-0.017,0.27,0.039,0.458,0.166,0.565   H9.771z M9.392,31.374c0,0.018,0,0.163,0,0.431c0,0.179-0.063,0.294-0.189,0.348c0.126,0.074,0.189,0.154,0.189,0.243   c0,0.054-0.031,0.145-0.095,0.268c-0.063,0.127-0.087,0.226-0.071,0.297c-0.411,0-0.823-0.009-1.234-0.027   c-0.475-0.036-0.815-0.232-1.021-0.594c-0.079-0.337,0.071-0.589,0.451-0.752c0.601-0.248,0.909-0.384,0.926-0.401   c0.031,0,0.222,0,0.569,0C9.139,31.168,9.297,31.23,9.392,31.374z M17.392,24.677h0.024c-0.08-0.018-0.151-0.026-0.214-0.026   c-0.143,0-0.317,0.055-0.522,0.162c-0.237,0.161-0.396,0.252-0.475,0.27c-0.016,0.054,0.031,0.188,0.143,0.403   c0.062-0.126,0.245-0.188,0.546-0.188l0.332,0.403v6.696c-0.079,0.072-0.166,0.107-0.261,0.107s-0.254-0.062-0.475-0.188   c-0.223-0.125-0.396-0.19-0.522-0.19c-0.095,0-0.183,0.018-0.262,0.054c-0.095,0.449-0.403,0.654-0.926,0.621   c-0.127-0.752-0.189-1.732-0.189-2.933c0.016-2.115,0.023-3.108,0.023-2.984l0.546-0.403c-0.237-0.502-0.355-0.824-0.355-0.968   c0-0.162,0.055-0.304,0.166-0.43c-0.127-0.232-0.19-0.582-0.19-1.048c0-0.179,0.013-0.463,0.036-0.847   c0.023-0.385,0.035-0.668,0.035-0.847c0-0.95-0.364-1.416-1.092-1.398c-0.222,0.467-0.349,1.12-0.38,1.962c0,0.681,0,1.362,0,2.044   c-0.016,0.448-0.071,0.842-0.166,1.184c-0.079-0.036-0.158-0.056-0.237-0.056c-0.158,0-0.428,0.2-0.808,0.593l0.879,0.403   C13.016,27.341,13,27.618,13,27.905c0,0.449,0.044,1.079,0.131,1.896s0.131,1.438,0.131,1.87c0,0.321-0.017,0.636-0.048,0.939   c-0.285,0.127-0.974,0.19-2.065,0.19c0.031-0.127,0.048-0.25,0.048-0.377c0-0.449-0.254-0.922-0.76-1.425   c0.095-0.197,0.143-0.431,0.143-0.699c0-0.143-0.017-0.362-0.048-0.659c-0.032-0.297-0.047-0.516-0.047-0.66   c0-0.484,0.157-0.86,0.475-1.128l-0.19-6.104c-0.411-0.054-0.629-0.294-0.652-0.726c-0.024-0.43-0.044-0.86-0.06-1.291   c0.396-0.484,0.894-0.725,1.495-0.725c0.617,0,1.116,0.241,1.496,0.725C13,19.929,13.11,20.198,13.38,20.538   c0.332-0.358,0.656-0.717,0.974-1.076c0.442-0.412,0.886-0.574,1.329-0.483c0.095-0.018,0.182-0.028,0.261-0.028   c0.586,0,1.068,0.538,1.448,1.614V24.677z"
   id="path912" />
	<path
   fill="#231F20"
   d="M21.522,29.544c-0.11,0.27-0.166,0.637-0.166,1.104c0,0.144,0.008,0.367,0.023,0.673   c0,0.302,0,0.527,0,0.67c0,0.826-0.237,1.328-0.712,1.507c-0.063,0-0.419,0-1.068,0c-0.443,0.018-0.783-0.045-1.021-0.188   c0.127-0.181,0.189-0.404,0.189-0.674c0-0.286-0.062-0.52-0.189-0.699c0.127-1.578,0.189-3.469,0.189-5.672   c-0.016-3.962-0.023-5.817-0.023-5.566c0.839-0.162,1.385-0.243,1.638-0.243c0.633,0,1.013,0.215,1.14,0.646   c-0.189,0.358-0.218,0.909-0.083,1.652c0.135,0.745,0.107,1.313-0.083,1.707c0.19,0.323,0.218,0.808,0.083,1.454   c-0.135,0.643-0.106,1.119,0.083,1.424c0.032,0.089,0.048,0.179,0.048,0.268c0,0.126-0.036,0.278-0.106,0.458   c-0.071,0.18-0.107,0.314-0.107,0.402c0,0.109,0.048,0.206,0.143,0.296c-0.095,0.054-0.143,0.126-0.143,0.215   c0,0.053,0.031,0.144,0.095,0.27C21.515,29.374,21.538,29.473,21.522,29.544z M21.38,18.091c-0.38,0.144-0.799,0.216-1.258,0.216   c-0.839,0-1.29,0-1.354,0c0.032-0.216,0.032-0.511,0-0.888c-0.016-0.502-0.023-0.807-0.023-0.914c0-0.556,0.11-0.941,0.332-1.156   c0.096-0.036,0.198-0.054,0.31-0.054c0.157,0,0.411,0.049,0.759,0.147c0.349,0.1,0.625,0.148,0.831,0.148   c0.127,0,0.253-0.018,0.38-0.053c0.127,0.232,0.19,0.502,0.19,0.806c0,0.179-0.032,0.461-0.096,0.847S21.364,17.875,21.38,18.091z"
   id="path914" />
	<path
   fill="#231F20"
   d="M29.356,27.985l-0.189,4.761c-0.175,0.161-0.443,0.214-0.808,0.161c-0.396-0.056-0.648-0.056-0.76,0   l-0.118-0.188c-0.079,0.143-0.158,0.214-0.237,0.214c-0.048,0-0.127-0.044-0.237-0.134c-0.111-0.089-0.206-0.136-0.285-0.136   c-0.063,0-0.119,0.018-0.166,0.056l-0.166-4.544l0.521-0.405l-0.498-0.376c0.016,0.126,0.023-0.949,0.023-3.225   c0-1.274-0.198-2.305-0.593-3.092c-0.364,0.556-0.566,1.276-0.605,2.164c-0.04,0.886-0.06,1.751-0.06,2.594l-0.19,0.188   c0.096,0.037,0.158,0.226,0.19,0.563l-0.19,0.217c0.079,0.053,0.143,0.241,0.19,0.564l-0.023,2.177   c-0.127,0.234-0.19,0.494-0.19,0.781c0,0.179,0.036,0.453,0.106,0.82c0.071,0.369,0.107,0.641,0.107,0.819   c0,0.27-0.063,0.52-0.19,0.754c-0.016,0-0.348,0-0.997,0c-0.49,0-0.847-0.074-1.067-0.216c-0.08-0.268-0.119-0.547-0.119-0.833   c0-0.339,0.075-0.812,0.226-1.414c0.15-0.6,0.226-1.033,0.226-1.304c0-0.519-0.183-0.977-0.546-1.371   c0.38-0.808,0.569-1.722,0.569-2.743c0-0.197-0.008-0.403-0.023-0.618c0.316,0,0.522-0.223,0.617-0.672   c0.158-0.682,0.245-1.04,0.261-1.076l-0.38-2.581c0.301-0.162,0.586-0.242,0.854-0.242c0.364,0,0.609,0.144,0.736,0.43   c0,0.036,0,0.215,0,0.538c-0.016,0.215,0.039,0.367,0.166,0.458c0.428-0.628,1.021-1.104,1.78-1.426   c0.333,0.125,0.665,0.242,0.997,0.35c0.364,0.198,0.594,0.483,0.688,0.86c0,0.897,0,1.802,0,2.714c0,0.987,0.071,1.857,0.214,2.608   l-0.023,0.861C29.167,27.476,29.229,27.788,29.356,27.985z"
   id="path916" />
</g>
<ellipse
   fill="#999999"
   cx="46.985"
   cy="18.621"
   rx="9.627"
   ry="10.903"
   id="ellipse920" />
<path
   fill="#999999"
   d="M33.364,62.484V40.536c0-5.411,5.903-9.799,13.189-9.799l0,0c7.285,0,13.187,4.388,13.187,9.799v21.948  H33.364z"
   id="path922" />
<g
   id="g930">
	<path
   d="M17.911,59.366c-0.311-0.411-0.738-0.616-1.282-0.616c-0.259,0-0.621,0.052-1.088,0.151   c-0.466,0.105-0.803,0.156-1.01,0.156c-0.647,0-1.036-0.424-1.165-1.276c-1.191,1.056-2.435,1.585-3.729,1.585   c-0.492,0-0.958-0.09-1.398-0.264c-1.425-1.848-2.137-3.401-2.137-4.663c0-0.384,0.039-0.778,0.117-1.188   c0.052-2.993,1.01-5.031,2.874-6.118c0.854-0.674,1.891-1.011,3.108-1.011c0.206,0,0.4,0.013,0.582,0.042   c0.207-0.234,0.53-0.351,0.972-0.351c0.673,0,1.022,0,1.049,0l0.232,0.351c0.025-0.029,0.453-0.848,1.282-2.462   c0.518-0.969,1.062-1.655,1.632-2.066c0,0.174,0,2.198,0,6.071c0,2.58-0.104,4.646-0.312,6.203   c0.182,0.087,0.272,0.395,0.272,0.924c-0.026,0.176-0.039,0.382-0.039,0.616c0,0.263,0.032,0.719,0.097,1.363   c0.064,0.646,0.098,1.128,0.098,1.453C18.066,58.705,18.014,59.071,17.911,59.366z M16.513,41.987   c-0.311,0.149-0.544,0.513-0.699,1.1s-0.415,0.969-0.777,1.143c-0.232,0.119-0.44,0.177-0.621,0.177   c-0.389,0-0.622-0.366-0.699-1.099c-0.104-0.939-0.208-1.481-0.311-1.626c0.051-0.764-0.155-1.335-0.622-1.717   c-0.906,0.234-1.67,1.438-2.292,3.606l-0.271-0.353c-0.777,0.234-1.386,0.353-1.826,0.353c-0.492,0-1.01-0.118-1.554-0.353   c0.181-1.671,0.35-2.754,0.505-3.254c0.362-1.116,1.023-1.849,1.981-2.201c0.803-0.145,2.046-0.366,3.729-0.66   c0.413,0.149,0.894,0.368,1.437,0.66c0.052-0.058,0.233-0.189,0.544-0.395c0.233-0.146,0.35-0.311,0.35-0.485   c0-0.116-0.025-0.25-0.077-0.395c0.181-0.058,0.388,0.045,0.621,0.306l-0.271,0.309c0.828,1.292,1.243,2.363,1.243,3.212   C16.901,40.873,16.771,41.432,16.513,41.987z M13.056,48.061c-0.363,0.469-0.738,0.688-1.127,0.658   c-0.155,0.851-0.298,1.688-0.427,2.507c-0.156,1.029-0.208,1.922-0.156,2.686c0.13,0.294,0.266,0.6,0.408,0.924   c0.143,0.323,0.343,0.482,0.603,0.482c0.129,0,0.271-0.045,0.427-0.132L13.056,48.061z"
   id="path924" />
	<path
   d="M33.721,37.237h-0.894c0.078-0.147-0.013-0.369-0.271-0.661c-0.389,0.413-0.583,0.88-0.583,1.409   c0-0.234,0.091,0.381,0.272,1.846c0.051,0.5,0.077,0.984,0.077,1.453c0,1.905-0.492,3.68-1.476,5.32   c-0.933,0.882-2.111,1.322-3.535,1.322c-0.26,0-0.505-0.016-0.738-0.045c0.052-0.674,0.389-1.596,1.01-2.772   c0.622-1.172,0.933-2.111,0.933-2.814c0-0.382-0.065-0.776-0.194-1.188c-0.104,0.237-0.389,0.353-0.854,0.353   c0-0.526-0.201-1.068-0.603-1.629c-0.401-0.556-0.589-1.101-0.562-1.625c-0.155,0.056-0.24,0.189-0.253,0.395   c-0.014,0.206-0.032,0.411-0.059,0.616l-0.543-0.66c-0.57,0.966-0.855,2.143-0.855,3.52c0,0.674,0.13,1.906,0.389,3.694   c0.207,1.613,0.272,2.875,0.194,3.783c-0.182-0.059-0.337-0.007-0.466,0.156c-0.13,0.16-0.26,0.312-0.389,0.46   c0,1.143,0.583,1.716,1.748,1.716c0.078,0,0.188,0,0.33,0s0.239,0,0.291,0c0.906,0,1.463,0.279,1.671,0.838   c-0.13,0.79-0.26,1.598-0.389,2.419c-0.182,0.938-0.647,1.438-1.398,1.496l-1.165-1.321c-0.182,0.118-0.247,0.439-0.194,0.969   c-0.155,0.06-0.35-0.045-0.583-0.307c-0.026,0.291-0.232,0.784-0.621,1.474s-0.583,1.194-0.583,1.518   c0,0.44,0.285,0.819,0.854,1.144h3.146c0,0.026,0,0.278,0,0.747c0,0.293,0.104,0.5,0.311,0.616   c0.362-0.147,0.544-0.529,0.544-1.143c0-0.118,0-0.295,0-0.529c-0.025-0.234-0.038-0.395-0.038-0.484   c0-0.558,0.219-0.837,0.66-0.837c0.155,0,0.336,0.031,0.544,0.089c0.207-0.263,0.311-0.674,0.311-1.231c0-0.851,0-1.306,0-1.362   c-0.389-0.471-0.583-1.028-0.583-1.674c0-0.379,0.091-0.96,0.272-1.738c0.181-0.777,0.271-1.355,0.271-1.737h0.854   c0.518,0.472,1.049,0.94,1.593,1.409c0.621,0.587,1.035,1.165,1.243,1.738c0.207,0.569,0.311,1.165,0.311,1.779   c0,0.998-0.285,2.245-0.854,3.741c-0.907,1.172-1.852,1.935-2.836,2.288c-0.077-0.061-0.169-0.088-0.271-0.088   c-0.155,0-0.408,0.088-0.758,0.264c-0.35,0.177-0.628,0.266-0.835,0.266c-0.13,0-0.259-0.031-0.389-0.089   c0.025-0.206-0.077-0.44-0.311-0.706c-0.233,0.119-0.421,0.491-0.563,1.123c-0.143,0.63-0.369,0.946-0.68,0.946   c-0.13,0-0.298-0.044-0.505-0.132c-0.026,0-0.428,0-1.204,0c-0.622,0.027-1.062-0.073-1.321-0.308   c-2.149-0.703-3.302-2.083-3.457-4.136c0.104-0.996,0.66-1.878,1.671-2.641c0.129,0.06,0.336-0.027,0.621-0.262   c-0.026-0.384-0.291-1.038-0.796-1.962c-0.505-0.922-0.758-1.663-0.758-2.221c0-0.469,0.129-0.925,0.389-1.362   c0.88-0.528,1.32-1.321,1.32-2.377c0-0.616-0.155-1.217-0.466-1.804c-0.622-0.471-0.933-1.351-0.933-2.641   c0-0.351,0.13-1.508,0.389-3.473c0.284-0.882,0.777-1.672,1.477-2.377s1.437-1.114,2.214-1.232l0.311,0.308   c0.181,0.029,0.511,0.007,0.99-0.067c0.479-0.071,0.836-0.109,1.068-0.109c0.88,0,1.424,0.396,1.632,1.188c0,0.061,0,0.411,0,1.059   c-0.026,0.41,0.064,0.703,0.271,0.877c0.414-0.293,0.608-0.849,0.583-1.67c-0.026-0.969,0.064-1.585,0.271-1.851   c0.492-1.232,1.735-2.214,3.729-2.946c0.207,0.295,0.311,0.616,0.311,0.967c0,0.236-0.064,0.603-0.194,1.103   c-0.13,0.498-0.193,0.893-0.193,1.188C33.644,36.826,33.669,37.032,33.721,37.237z"
   id="path926" />
	<path
   d="M47.238,44.846c-0.182,0.382-0.272,0.793-0.272,1.234c0,0.44,0,0.864,0,1.272c-0.052,0.355-0.155,0.708-0.311,1.059   c-0.232-0.09-0.427-0.132-0.582-0.132c-0.182,0-0.369,0.064-0.563,0.198c-0.194,0.13-0.344,0.196-0.447,0.196   c-0.155,0-0.362-0.073-0.621-0.219l-1.67-3.082c0.025,0.882,0.168,1.66,0.427,2.335c0.129,0.353,0.259,0.703,0.389,1.056   c-1.062,0.145-1.658,0.145-1.787,0l-0.271,0.351l-0.583-0.969c-0.519,0.645-0.674,1.629-0.466,2.948   c0.258,1.439,0.232,2.464-0.078,3.08c0.362,0.675,0.815,1.012,1.359,1.012c0.233,0,0.44-0.087,0.622-0.264   c0.284-0.703,0.569-1.408,0.854-2.111c0.414-0.851,0.854-1.274,1.32-1.274c0.362,0,0.777,0.234,1.243,0.703   c0.569,0.261,0.854,0.587,0.854,0.969c0,0.234-0.149,0.606-0.446,1.12c-0.298,0.514-0.447,0.917-0.447,1.21   c0,0.118,0.013,0.219,0.039,0.308c-0.389,0.295-0.744,0.748-1.068,1.366c-0.324,0.614-0.731,1.024-1.224,1.23   c-0.44,0.439-0.842,0.66-1.204,0.66c-0.285,0-0.699-0.272-1.243-0.814c-0.544-0.54-1.062-0.814-1.554-0.814   c-0.182-0.529-0.66-1.128-1.438-1.804c-0.776-0.675-1.242-1.38-1.398-2.112c0,0.061,0-0.176,0-0.703   c0-0.294-0.104-0.484-0.311-0.573l0.311-0.306c-0.388-0.029-0.582-0.295-0.582-0.793c0-0.06,0-0.176,0-0.353   c0.025-0.147,0.039-0.266,0.039-0.351c0-0.354-0.092-0.603-0.272-0.75v-1.54c0-0.792-0.116-1.363-0.35-1.714   c0.336-1.851,0.673-3.696,1.01-5.542c0.518-2.143,1.191-3.212,2.021-3.212c0.129,0,0.259,0.029,0.389,0.087   c0.776-0.79,1.695-1.188,2.758-1.188c1.165,0,2.434,0.469,3.807,1.406C46.5,40.142,47.083,42.411,47.238,44.846z M42.11,39.701   l-0.271,0.351c-0.182,0.029-0.389-0.087-0.622-0.351v1.009c-0.414,0.474-0.608,1.219-0.582,2.245c0,1.759,0,2.609,0,2.552   l1.165,0.045c0.569-0.324,0.854-0.896,0.854-1.717c0-0.411-0.097-1.092-0.291-2.044C42.169,40.838,42.085,40.142,42.11,39.701z"
   id="path928" />
</g>
<path
   d="M64.547,35.253c0,3.738-2.677,6.768-5.978,6.768c-3.299,0-5.977-3.029-5.977-6.768c0-3.741,2.678-6.771,5.977-6.771  C61.87,28.482,64.547,31.512,64.547,35.253z"
   id="path932" />
<path
   d="M50.112,62.484v-13.63c0-3.356,3.666-6.082,8.189-6.082l0,0c4.523,0,8.188,2.726,8.188,6.082v13.63H50.112z"
   id="path934" />
<text
   xml:space="preserve"
   style="font-style:normal;font-variant:normal;font-weight:normal;font-stretch:normal;font-size:40px;line-height:1.25;font-family:Fredoka;-inkscape-font-specification:'Fredoka, Normal';font-variant-ligatures:normal;font-variant-caps:normal;font-variant-numeric:normal;font-feature-settings:normal;text-align:start;letter-spacing:0px;word-spacing:0px;writing-mode:lr-tb;text-anchor:start;fill:#000000;fill-opacity:1;stroke:none"
   x="73.656433"
   y="48.848816"
   id="text945"><tspan
     sodipodi:role="line"
     id="tspan943"
     x="73.656433"
     y="48.848816">16</tspan></text>
</svg>