<?xml version="1.0" encoding="UTF-8" standalone="no"?>
<!-- Generator: Adobe Illustrator 15.0.0, SVG Export Plug-In . SVG Version: 6.00 Build 0)  -->

<svg
   xmlns:dc="http://purl.org/dc/elements/1.1/"
   xmlns:cc="http://creativecommons.org/ns#"
   xmlns:rdf="http://www.w3.org/1999/02/22-rdf-syntax-ns#"
   xmlns:svg="http://www.w3.org/2000/svg"
   xmlns="http://www.w3.org/2000/svg"
   xmlns:sodipodi="http://sodipodi.sourceforge.net/DTD/sodipodi-0.dtd"
   xmlns:inkscape="http://www.inkscape.org/namespaces/inkscape"
   version="1.1"
   id="Layer_1"
   x="0px"
   y="0px"
   width="144px"
   height="72px"
   viewBox="0 0 144 72"
   enable-background="new 0 0 144 72"
   xml:space="preserve"
   sodipodi:docname="number-of-players.svg"
   inkscape:version="0.92.5 (2060ec1f9f, 2020-04-08)"><metadata
   id="metadata1742"><rdf:RDF><cc:Work
       rdf:about=""><dc:format>image/svg+xml</dc:format><dc:type
         rdf:resource="http://purl.org/dc/dcmitype/StillImage" /></cc:Work></rdf:RDF></metadata><defs
   id="defs1740" /><sodipodi:namedview
   pagecolor="#ffffff"
   bordercolor="#666666"
   borderopacity="1"
   objecttolerance="10"
   gridtolerance="10"
   guidetolerance="10"
   inkscape:pageopacity="0"
   inkscape:pageshadow="2"
   inkscape:window-width="1848"
   inkscape:window-height="1016"
   id="namedview1738"
   showgrid="false"
   inkscape:zoom="4"
   inkscape:cx="71.589744"
   inkscape:cy="36"
   inkscape:window-x="72"
   inkscape:window-y="27"
   inkscape:window-maximized="1"
   inkscape:current-layer="Layer_1" />
<polygon
   fill="#FFFFFF"
   stroke="#231F20"
   stroke-width="6.3855"
   points="144,72 72.342,72 0,72 0,0 68.086,0 144,0 "
   id="polygon1689" />
<ellipse
   fill="#231F20"
   cx="11.583"
   cy="16.16"
   rx="5.572"
   ry="6.27"
   id="ellipse1691" />
<path
   fill="#231F20"
   d="M17.465,47.443c0,3.109-2.634,5.633-5.882,5.633l0,0c-3.249,0-5.881-2.523-5.881-5.633V28.761  c0-3.111,2.633-5.635,5.881-5.635l0,0c3.248,0,5.882,2.523,5.882,5.635V47.443z"
   id="path1693" />
<path
   fill="#231F20"
   d="M27.834,49.768c0,1.826-1.111,3.308-2.484,3.308H10.972c-1.372,0-2.484-1.481-2.484-3.308l0,0  c0-1.827,1.112-3.31,2.484-3.31H25.35C26.723,46.458,27.834,47.94,27.834,49.768L27.834,49.768z"
   id="path1695" />
<path
   fill="#231F20"
   d="M25.667,64.221c-1.623,0-2.94-1.021-2.94-2.279V48.74c0-1.26,1.317-2.282,2.94-2.282l0,0  c1.624,0,2.941,1.022,2.941,2.282v13.201C28.608,63.199,27.292,64.221,25.667,64.221L25.667,64.221z"
   id="path1697" />
<path
   fill="#231F20"
   d="M51.204,40.896c0,1.057-0.762,1.914-1.702,1.914h-27.24c-0.94,0-1.702-0.857-1.702-1.914l0,0  c0-1.059,0.762-1.916,1.702-1.916h27.24C50.442,38.98,51.204,39.838,51.204,40.896L51.204,40.896z"
   id="path1699" />
<path
   fill="#231F20"
   d="M40.68,59.352c0,3.559-1.634,5.398-4.797,5.398l0,0c-3.163,0-4.797-1.84-4.797-5.398V41.931h9.595V59.352z"
   id="path1701" />
<path
   fill="#231F20"
   d="M45.478,37.148c0,0.342-0.208,0.619-0.464,0.619H27.06c-0.256,0-0.464-0.277-0.464-0.619l0,0  c0-0.344,0.208-0.621,0.464-0.621h17.954C45.27,36.527,45.478,36.804,45.478,37.148L45.478,37.148z"
   id="path1703" />
<path
   fill="#231F20"
   d="M26.023,36.948c-0.394,1.218-1.593,1.849-2.677,1.407l-11.492-4.697c-1.085-0.444-1.644-1.792-1.25-3.013  l0,0c0.394-1.218,1.593-1.849,2.678-1.406l11.492,4.697C25.858,34.379,26.417,35.728,26.023,36.948L26.023,36.948z"
   id="path1705" />
<ellipse
   fill="#231F20"
   cx="60.834"
   cy="16.16"
   rx="5.572"
   ry="6.27"
   id="ellipse1707" />
<path
   fill="#231F20"
   d="M54.951,47.443c0,3.109,2.634,5.633,5.882,5.633l0,0c3.249,0,5.882-2.523,5.882-5.633V28.761  c0-3.111-2.634-5.635-5.882-5.635l0,0c-3.248,0-5.882,2.523-5.882,5.635V47.443z"
   id="path1709" />
<path
   fill="#231F20"
   d="M44.582,49.768c0,1.826,1.112,3.308,2.484,3.308h14.378c1.372,0,2.483-1.481,2.483-3.308l0,0  c0-1.827-1.112-3.31-2.483-3.31H47.066C45.694,46.458,44.582,47.94,44.582,49.768L44.582,49.768z"
   id="path1711" />
<path
   fill="#231F20"
   d="M46.749,64.221c1.624,0,2.94-1.021,2.94-2.279V48.74c0-1.26-1.316-2.282-2.94-2.282l0,0  c-1.624,0-2.941,1.022-2.941,2.282v13.201C43.807,63.199,45.125,64.221,46.749,64.221L46.749,64.221z"
   id="path1713" />
<path
   fill="#231F20"
   d="M46.286,36.833c0.394,1.219,1.593,1.849,2.677,1.406l11.492-4.697c1.084-0.444,1.645-1.792,1.25-3.013l0,0  c-0.395-1.219-1.593-1.849-2.678-1.406L47.537,33.82C46.452,34.264,45.893,35.612,46.286,36.833L46.286,36.833z"
   id="path1715" />
<g
   id="g1731">
	<path
   d="M92.934,58.18l-0.02-0.018c0.025,0.228,0.037,0.468,0.037,0.72c0,1.212-0.27,2.304-0.811,3.276   c-0.18,0.107-0.404,0.186-0.676,0.233c-0.27,0.049-0.529,0.091-0.781,0.126l-0.252-0.233l-0.145,0.144   c-0.156-0.06-0.27-0.216-0.342-0.468c-0.133-0.408-0.205-0.558-0.217-0.45c-0.012,0.108-0.061,0.475-0.145,1.099   c-0.07,0.479-0.107,0.869-0.107,1.17c0,0.203,0.012,0.401,0.037,0.594l-0.145,0.126c0.107,0.132,0.156,0.222,0.145,0.27   c-0.049,0-0.373,0-0.973,0c-0.457,0.013-0.805-0.029-1.045-0.126c-0.012-0.815,0.031-1.991,0.127-3.527   c0.012-0.229-0.031-0.366-0.127-0.414l0.145-0.145c-0.096-0.036-0.145-0.113-0.145-0.233c0-0.181,0-0.276,0-0.288l0.145-0.126   c-0.107-0.145-0.162-0.228-0.162-0.252c0.107-0.156,0.295-0.181,0.559-0.072c0.215,0.108,0.348,0.042,0.396-0.198   c-0.193,0.036-0.422-0.065-0.686-0.306s-0.473-0.36-0.629-0.36c0.096-0.792,0.145-1.752,0.145-2.88   c-0.014-2.027-0.02-2.97-0.02-2.826c0.145-0.096,0.445-0.144,0.9-0.144c0.684,0.012,1.002,0.018,0.955,0.018l0.395,0.811   l0.666-0.54l0.252,0.27c0.096-0.264,0.211-0.396,0.342-0.396c0.072,0,0.229,0.078,0.469,0.233c0.203,0.145,0.371,0.192,0.504,0.145   c0.553,0.552,0.828,1.266,0.828,2.142c0,0.168-0.012,0.336-0.035,0.504c0.322,0.744,0.484,1.303,0.484,1.675   C93.004,57.886,92.98,58.036,92.934,58.18z M91.188,56.182h-0.127c-0.107-0.048-0.15-0.18-0.125-0.396h-0.145v0.396h0.145   c-0.037,0.072-0.176,0.12-0.414,0.145c0.012-0.24-0.045-0.573-0.172-0.999c-0.125-0.426-0.189-0.741-0.189-0.945   s0.043-0.396,0.127-0.576c-0.396,0.288-0.66,0.685-0.793,1.188c-0.084,0.3-0.129,0.786-0.135,1.458s-0.051,1.158-0.135,1.458   c0.084,0.276,0.127,0.612,0.127,1.008c0,0.396-0.049,0.9-0.145,1.512c0.24-0.036,0.396,0.066,0.467,0.307   c0.121,0.384,0.188,0.582,0.199,0.594l0.252-0.271c0.24,0.024,0.396-0.096,0.467-0.359c0.121-0.444,0.188-0.672,0.199-0.685   c-0.121-0.203-0.141-0.51-0.062-0.918c0.078-0.407,0.051-0.726-0.082-0.954c0.012-0.348,0.018-0.689,0.018-1.025   C90.713,56.662,90.887,56.351,91.188,56.182z"
   id="path1717"
   fill="#231F20" />
	<path
   d="M96.119,62.464h0.018c-0.049,0.264-0.324,0.438-0.828,0.522l-0.107-0.145   c-0.037,0.096-0.115,0.145-0.234,0.145c-0.191,0-0.295,0-0.307,0l-0.143-0.145c-0.037,0.084-0.17,0.138-0.396,0.162   c-0.096-0.84-0.139-1.901-0.127-3.186c0-2.053,0-3.126,0-3.223c-0.023-0.743-0.066-1.392-0.125-1.943   c0.084-0.12,0.098-0.349,0.045-0.685c-0.055-0.336-0.027-0.582,0.08-0.737c-0.096-0.156-0.143-0.354-0.143-0.595   c0-0.239,0.053-0.443,0.16-0.611c-0.012-0.061-0.012-0.276,0-0.648c0-0.3-0.047-0.516-0.143-0.648c0-0.384,0.197-0.575,0.594-0.575   c0.072,0,0.176,0.006,0.314,0.018s0.236,0.019,0.297,0.019c0.229,0,0.391-0.048,0.486-0.145c0.229,0.072,0.414,0.252,0.559,0.54   c-0.098,1.933-0.145,3.895-0.145,5.886C95.975,58.45,96.021,60.448,96.119,62.464z"
   id="path1719"
   fill="#231F20" />
	<path
   d="M102.49,62.626c-0.145-0.168-0.342-0.252-0.594-0.252c-0.119,0-0.287,0.021-0.504,0.062   c-0.217,0.043-0.371,0.063-0.469,0.063c-0.299,0-0.479-0.174-0.539-0.522c-0.553,0.433-1.129,0.648-1.729,0.648   c-0.229,0-0.443-0.036-0.648-0.108c-0.66-0.756-0.988-1.392-0.988-1.907c0-0.156,0.018-0.318,0.053-0.486   c0.023-1.224,0.469-2.058,1.332-2.502c0.396-0.276,0.877-0.414,1.439-0.414c0.098,0,0.188,0.006,0.271,0.018   c0.096-0.096,0.246-0.144,0.449-0.144c0.312,0,0.475,0,0.486,0l0.107,0.144c0.012-0.012,0.211-0.348,0.594-1.008   c0.24-0.396,0.492-0.678,0.756-0.846c0,0.072,0,0.9,0,2.484c0,1.056-0.047,1.901-0.143,2.537c0.084,0.036,0.125,0.162,0.125,0.379   c-0.012,0.071-0.018,0.155-0.018,0.252c0,0.107,0.016,0.294,0.045,0.558s0.045,0.462,0.045,0.594   C102.562,62.356,102.539,62.506,102.49,62.626z M101.842,55.516c-0.143,0.061-0.252,0.211-0.322,0.45   c-0.072,0.24-0.193,0.396-0.361,0.468c-0.107,0.049-0.203,0.072-0.287,0.072c-0.18,0-0.289-0.149-0.324-0.45   c-0.049-0.384-0.096-0.605-0.145-0.666c0.023-0.312-0.072-0.546-0.287-0.701c-0.42,0.096-0.775,0.588-1.062,1.476l-0.127-0.145   c-0.359,0.097-0.641,0.145-0.846,0.145c-0.229,0-0.467-0.048-0.719-0.145c0.084-0.684,0.162-1.127,0.232-1.331   c0.168-0.456,0.475-0.757,0.918-0.9c0.373-0.06,0.949-0.15,1.729-0.271c0.191,0.061,0.414,0.15,0.666,0.271   c0.023-0.024,0.107-0.078,0.252-0.162c0.109-0.06,0.162-0.126,0.162-0.198c0-0.048-0.012-0.102-0.035-0.162   c0.084-0.023,0.18,0.019,0.287,0.126l-0.125,0.126c0.383,0.528,0.576,0.967,0.576,1.314   C102.023,55.061,101.963,55.288,101.842,55.516z M100.24,58c-0.168,0.192-0.342,0.282-0.521,0.27   c-0.072,0.349-0.139,0.69-0.197,1.026c-0.072,0.42-0.098,0.786-0.072,1.098c0.059,0.12,0.123,0.246,0.188,0.379   c0.066,0.132,0.16,0.197,0.279,0.197c0.061,0,0.127-0.018,0.199-0.054L100.24,58z"
   id="path1721"
   fill="#231F20" />
	<path
   d="M108.629,53.968l0.018-0.018c-0.012,0.06-0.246,0.954-0.701,2.682c-0.289,1.092-0.492,2.011-0.613,2.754   c-0.156,0.301-0.303,0.783-0.441,1.449c-0.137,0.666-0.291,1.149-0.459,1.449c0.049,0.468-0.051,0.927-0.297,1.377   s-0.566,0.795-0.963,1.035c-0.047-0.024-0.096-0.036-0.143-0.036c-0.072,0-0.189,0.026-0.352,0.081   c-0.162,0.054-0.285,0.081-0.369,0.081c-0.107,0-0.205-0.036-0.287-0.108c-0.48,0-0.828-0.042-1.045-0.126   c-0.096-0.372-0.145-0.672-0.145-0.899c0-0.373,0.115-0.57,0.342-0.595c0.252,0.096,0.475,0.145,0.666,0.145   c0.264,0,0.51-0.084,0.738-0.252c0.012-0.061,0.057-0.147,0.135-0.262s0.117-0.194,0.117-0.242c0-0.061-0.041-0.12-0.125-0.181   c0-0.3,0.006-0.605,0.018-0.918c-0.012-0.407-0.061-0.726-0.145-0.954c0.012-0.023,0.055-0.132,0.127-0.323   c0.047-0.133,0.072-0.24,0.072-0.324c0-0.168-0.104-0.3-0.307-0.396c0-0.348-0.076-0.818-0.225-1.413   c-0.15-0.594-0.232-1.047-0.244-1.358c0-0.24,0.006-0.48,0.02-0.721c0-0.348-0.043-0.605-0.127-0.773   c-0.012-0.12-0.061-0.342-0.145-0.666c-0.072-0.288-0.107-0.504-0.107-0.648c0-0.18,0.041-0.323,0.125-0.432h1.729   c0.072,0.264,0.234,1.188,0.486,2.772c-0.012,0.048-0.018,0.102-0.018,0.161c0,0.12,0.029,0.288,0.09,0.504   c0.084,0.253,0.131,0.421,0.145,0.505c0.18-0.396,0.33-0.99,0.449-1.782c0.133-0.876,0.252-1.477,0.359-1.8   c0.061,0.023,0.127,0.035,0.199,0.035c0.096,0,0.24-0.023,0.432-0.071s0.336-0.072,0.432-0.072   C108.311,53.626,108.496,53.74,108.629,53.968z"
   id="path1723"
   fill="#231F20" />
	<path
   d="M114.875,56.686c-0.084,0.156-0.127,0.324-0.127,0.505c0,0.18,0,0.354,0,0.521   c-0.023,0.145-0.072,0.288-0.143,0.432c-0.109-0.035-0.199-0.054-0.271-0.054c-0.084,0-0.17,0.027-0.26,0.081   s-0.16,0.081-0.207,0.081c-0.072,0-0.168-0.029-0.289-0.09l-0.773-1.26c0.012,0.359,0.078,0.678,0.197,0.954   c0.061,0.144,0.121,0.287,0.182,0.432c-0.492,0.061-0.77,0.061-0.828,0l-0.127,0.144l-0.27-0.396   c-0.24,0.264-0.312,0.666-0.217,1.206c0.121,0.588,0.109,1.008-0.035,1.26c0.168,0.276,0.377,0.414,0.629,0.414   c0.109,0,0.205-0.036,0.289-0.108c0.131-0.288,0.264-0.575,0.396-0.863c0.191-0.349,0.395-0.522,0.611-0.522   c0.168,0,0.359,0.097,0.576,0.288c0.264,0.108,0.396,0.24,0.396,0.396c0,0.096-0.07,0.249-0.207,0.459   c-0.139,0.21-0.207,0.375-0.207,0.494c0,0.049,0.006,0.091,0.018,0.126c-0.18,0.12-0.346,0.307-0.496,0.559   c-0.148,0.252-0.338,0.42-0.566,0.504c-0.203,0.18-0.391,0.27-0.559,0.27c-0.131,0-0.322-0.11-0.574-0.333   c-0.254-0.222-0.492-0.333-0.721-0.333c-0.084-0.216-0.307-0.461-0.666-0.737s-0.576-0.564-0.648-0.864c0,0.024,0-0.072,0-0.288   c0-0.12-0.049-0.198-0.145-0.234l0.145-0.126c-0.18-0.012-0.27-0.119-0.27-0.323c0-0.024,0-0.072,0-0.145   c0.012-0.06,0.018-0.107,0.018-0.144c0-0.145-0.043-0.246-0.125-0.307v-0.63c0-0.323-0.055-0.558-0.162-0.702   c0.154-0.756,0.311-1.512,0.467-2.268c0.24-0.876,0.553-1.314,0.936-1.314c0.061,0,0.121,0.013,0.182,0.036   c0.359-0.323,0.785-0.485,1.277-0.485c0.539,0,1.127,0.191,1.764,0.576C114.533,54.76,114.803,55.69,114.875,56.686z    M112.498,54.58l-0.125,0.144c-0.084,0.013-0.18-0.035-0.289-0.144v0.414c-0.191,0.192-0.281,0.498-0.27,0.918   c0,0.72,0,1.068,0,1.044l0.541,0.018c0.264-0.132,0.395-0.365,0.395-0.701c0-0.168-0.045-0.447-0.135-0.838   C112.525,55.045,112.486,54.76,112.498,54.58z"
   id="path1725"
   fill="#231F20" />
	<path
   d="M119.986,55.732c-0.732-0.108-1.219-0.156-1.457-0.145c-0.35,0.204-0.553,0.601-0.613,1.188   c-0.119,0.972-0.18,1.464-0.18,1.476l-0.125-0.144l-0.289,0.252c0.049,0.084,0.186,0.126,0.414,0.126   c0.096,0.228,0.145,0.492,0.145,0.792c0,0.312-0.049,0.575-0.145,0.792c-0.215,0.156-0.438,0.312-0.666,0.468   s-0.461,0.234-0.701,0.234c-0.109,0-0.229-0.013-0.361-0.036c0-0.024,0-0.271,0-0.738c0-0.312-0.047-0.552-0.143-0.72l0.684-0.378   c-0.049-0.097-0.186-0.145-0.414-0.145l-0.379-4.878c0.361-0.191,0.756-0.234,1.189-0.126c0.059-0.096,0.162-0.144,0.305-0.144   c0.217,0,0.33,0,0.342,0c0.182,0.084,0.271,0.197,0.271,0.342c0,0.06-0.021,0.15-0.064,0.27c-0.041,0.12-0.062,0.204-0.062,0.252   c0,0.145,0.084,0.259,0.252,0.343c0.264-0.324,0.533-0.654,0.811-0.99c0.359-0.372,0.756-0.534,1.188-0.486V55.732z M117.592,61.15   c0.109,0.323,0.162,0.63,0.162,0.918c0,0.336-0.09,0.594-0.27,0.773c-0.133-0.024-0.24-0.152-0.324-0.387s-0.197-0.369-0.342-0.405   c-0.061,0.145-0.125,0.282-0.197,0.414c-0.072,0.156-0.188,0.24-0.342,0.252c-0.098-0.096-0.145-0.233-0.145-0.414   c0-0.312,0-0.474,0-0.485c0.047,0.012,0.096,0.018,0.145,0.018c0.168,0,0.361-0.117,0.584-0.351   c0.223-0.234,0.412-0.352,0.566-0.352C117.479,61.132,117.533,61.139,117.592,61.15z"
   id="path1727"
   fill="#231F20" />
	<path
   d="M125.584,59.656h0.018c0.014,0.132,0.02,0.264,0.02,0.396c0,0.648-0.193,1.309-0.576,1.98   c-0.049-0.024-0.096-0.036-0.145-0.036c-0.084,0-0.156,0.054-0.217,0.162c-0.084,0.144-0.137,0.228-0.16,0.252   c-0.408,0.24-0.842,0.33-1.297,0.27c-0.072,0.036-0.15,0.055-0.234,0.055c-0.119,0-0.314-0.075-0.584-0.226   c-0.271-0.149-0.49-0.213-0.658-0.188c-0.047-0.132-0.258-0.444-0.629-0.937c-0.24-0.336-0.342-0.684-0.307-1.044   c0.168-0.012,0.402-0.096,0.701-0.252c0.301-0.155,0.541-0.234,0.721-0.234c0.096,0,0.197,0.019,0.307,0.055   c-0.012,0.084-0.018,0.162-0.018,0.233c0,0.337,0.18,0.738,0.539,1.206c0.035-0.023,0.197-0.071,0.486-0.144   c0.203-0.06,0.312-0.18,0.324-0.36c0.047-0.815-0.133-1.302-0.541-1.458l-0.252-0.27c-0.035,0.096-0.09,0.144-0.162,0.144   c-0.035,0-0.096-0.023-0.18-0.071s-0.15-0.072-0.197-0.072c0.623-0.516,0.936-0.84,0.936-0.973c0-0.06-0.055-0.09-0.162-0.09   c-0.084,0-0.297,0.042-0.639,0.126s-0.574,0.126-0.693,0.126c-0.133,0-0.211-0.029-0.234-0.09c-0.443-0.42-0.666-1.092-0.666-2.016   c0-0.42,0.049-0.847,0.145-1.278c0.191-0.443,0.672-0.846,1.439-1.206c0.396,0.048,0.973,0.174,1.729,0.378   c0.553,0.553,0.828,1.152,0.828,1.8c0,0.145-0.012,0.295-0.035,0.45L124,56.488c-0.023-0.036-0.131-0.349-0.324-0.937   c-0.119-0.371-0.316-0.588-0.594-0.647c-0.229,0.276-0.342,0.588-0.342,0.936c0,0.252,0.066,0.511,0.199,0.774   c0.311,0.204,0.484,0.324,0.521,0.359c0.156,0.156,0.24,0.343,0.252,0.559c0.131,0.252,0.504,0.563,1.115,0.936   C125.32,58.769,125.572,59.164,125.584,59.656z"
   id="path1729"
   fill="#231F20" />
</g>
<ellipse
   fill="#A6A8AB"
   cx="36.446"
   cy="12.352"
   rx="5.572"
   ry="6.269"
   id="ellipse1733" />
<path
   fill="#A6A8AB"
   d="M30.564,35.415V24.95c0-3.111,2.633-5.633,5.882-5.633l0,0c3.248,0,5.882,2.522,5.882,5.633v10.465"
   id="path1735" />
<rect
   style="fill:#ffffff;fill-opacity:1;stroke:none;stroke-width:0.78992128;stroke-linejoin:round;stroke-miterlimit:4;stroke-dasharray:0.78992128, 1.57984257000000006;stroke-dashoffset:0;stroke-opacity:1"
   id="rect2294"
   width="9.4358978"
   height="20.923077"
   x="120.61539"
   y="46.153847" /><text
   xml:space="preserve"
   style="font-style:normal;font-variant:normal;font-weight:normal;font-stretch:normal;font-size:40px;line-height:1.25;font-family:'Fredoka One';-inkscape-font-specification:'Fredoka One, Normal';font-variant-ligatures:normal;font-variant-caps:normal;font-variant-numeric:normal;font-feature-settings:normal;text-align:start;letter-spacing:0px;word-spacing:0px;writing-mode:lr-tb;text-anchor:start;fill:#000000;fill-opacity:1;stroke:none"
   x="94"
   y="48.25"
   id="text2298"><tspan
     sodipodi:role="line"
     id="tspan2296"
     x="94"
     y="48.25">1</tspan></text>
</svg>