<?xml version="1.0" encoding="UTF-8" standalone="no"?>
<!-- Generator: Adobe Illustrator 15.0.0, SVG Export Plug-In . SVG Version: 6.00 Build 0)  -->

<svg
   xmlns:dc="http://purl.org/dc/elements/1.1/"
   xmlns:cc="http://creativecommons.org/ns#"
   xmlns:rdf="http://www.w3.org/1999/02/22-rdf-syntax-ns#"
   xmlns:svg="http://www.w3.org/2000/svg"
   xmlns="http://www.w3.org/2000/svg"
   xmlns:sodipodi="http://sodipodi.sourceforge.net/DTD/sodipodi-0.dtd"
   xmlns:inkscape="http://www.inkscape.org/namespaces/inkscape"
   version="1.1"
   id="Layer_1"
   x="0px"
   y="0px"
   width="144px"
   height="72px"
   viewBox="0 0 144 72"
   enable-background="new 0 0 144 72"
   xml:space="preserve"
   sodipodi:docname="time-to-play.svg"
   inkscape:version="0.92.5 (2060ec1f9f, 2020-04-08)"><metadata
   id="metadata1050"><rdf:RDF><cc:Work
       rdf:about=""><dc:format>image/svg+xml</dc:format><dc:type
         rdf:resource="http://purl.org/dc/dcmitype/StillImage" /></cc:Work></rdf:RDF></metadata><defs
   id="defs1048" /><sodipodi:namedview
   pagecolor="#ffffff"
   bordercolor="#666666"
   borderopacity="1"
   objecttolerance="10"
   gridtolerance="10"
   guidetolerance="10"
   inkscape:pageopacity="0"
   inkscape:pageshadow="2"
   inkscape:window-width="1848"
   inkscape:window-height="1016"
   id="namedview1046"
   showgrid="false"
   inkscape:zoom="2.4375"
   inkscape:cx="71.589744"
   inkscape:cy="36"
   inkscape:window-x="72"
   inkscape:window-y="27"
   inkscape:window-maximized="1"
   inkscape:current-layer="Layer_1" />
<polygon
   fill="#FFFFFF"
   stroke="#231F20"
   stroke-width="6.3855"
   points="144,72 72.342,72 0,72 0,0 68.086,0 144,0 "
   id="polygon1017" />
<polygon
   fill="#999999"
   points="32.215,37.175 32.17,14.916 43.534,19.605 50.569,28.083 52.555,32.773 52.555,37.175 "
   id="polygon1019" />
<circle
   fill="none"
   stroke="#000000"
   stroke-width="3.614"
   cx="31.465"
   cy="36.425"
   r="25.75"
   id="circle1021" />
<circle
   cx="32.215"
   cy="37.175"
   r="2.435"
   id="circle1023" />
<line
   fill="none"
   stroke="#000000"
   stroke-width="2"
   stroke-linecap="round"
   x1="32.26"
   y1="37.282"
   x2="32.26"
   y2="19.082"
   id="line1025" />
<line
   fill="none"
   stroke="#000000"
   stroke-width="2"
   stroke-linecap="round"
   x1="50.049"
   y1="37.282"
   x2="31.584"
   y2="37.282"
   id="line1027" />
<g
   id="g1043">
	<path
   d="M85.2,54.665l-0.019-0.018c-0.18,0.552-0.27,1.199-0.27,1.943c0,0.336,0.023,0.846,0.072,1.53   c0.048,0.684,0.071,1.194,0.071,1.53c0,0.72-0.084,1.35-0.252,1.89c-0.096-0.06-0.204-0.09-0.323-0.09   c-0.181,0-0.412,0.069-0.693,0.207c-0.282,0.138-0.459,0.207-0.531,0.207c-0.156,0-0.216-0.192-0.18-0.576v-2.268   c-0.097-0.673-0.145-1.38-0.145-2.124c0-0.792,0.055-1.536,0.162-2.232c-0.096-0.072-0.144-0.191-0.144-0.36   c0-0.18,0.042-0.317,0.126-0.414c0.084,0.013,0.174,0.019,0.27,0.019c0.145,0,0.345-0.019,0.604-0.054   c0.258-0.036,0.44-0.055,0.549-0.055c0.168,0,0.312,0.024,0.432,0.072c0,0.024,0,0.162,0,0.414c-0.012,0.18,0.03,0.306,0.126,0.378   H85.2z M84.912,62.045c0,0.012,0,0.108,0,0.288c0,0.12-0.048,0.198-0.145,0.234c0.097,0.048,0.145,0.102,0.145,0.161   c0,0.036-0.024,0.097-0.072,0.181s-0.066,0.15-0.054,0.198c-0.312,0-0.624-0.006-0.937-0.019c-0.359-0.023-0.618-0.155-0.773-0.396   c-0.061-0.229,0.054-0.396,0.342-0.504c0.456-0.168,0.689-0.259,0.702-0.271c0.023,0,0.168,0,0.432,0   C84.72,61.907,84.84,61.949,84.912,62.045z M90.978,57.563h0.019c-0.061-0.013-0.114-0.019-0.162-0.019   c-0.108,0-0.24,0.036-0.396,0.108c-0.181,0.107-0.301,0.168-0.36,0.18c-0.013,0.036,0.023,0.126,0.107,0.27   c0.048-0.083,0.187-0.126,0.414-0.126l0.252,0.271v4.481c-0.06,0.049-0.126,0.072-0.197,0.072c-0.072,0-0.192-0.042-0.36-0.126   s-0.3-0.126-0.396-0.126c-0.072,0-0.139,0.013-0.198,0.036c-0.072,0.3-0.307,0.438-0.702,0.414   c-0.097-0.504-0.145-1.158-0.145-1.962c0.013-1.416,0.019-2.082,0.019-1.998l0.414-0.271c-0.18-0.335-0.271-0.552-0.271-0.647   c0-0.108,0.042-0.204,0.126-0.288c-0.096-0.156-0.144-0.39-0.144-0.702c0-0.12,0.009-0.309,0.027-0.566   c0.018-0.259,0.026-0.447,0.026-0.567c0-0.636-0.276-0.948-0.828-0.937c-0.168,0.312-0.264,0.751-0.288,1.314   c0,0.456,0,0.912,0,1.368c-0.012,0.3-0.054,0.564-0.126,0.792c-0.06-0.024-0.12-0.036-0.18-0.036c-0.12,0-0.324,0.132-0.612,0.396   l0.666,0.271c-0.023,0.18-0.035,0.366-0.035,0.558c0,0.301,0.032,0.724,0.099,1.27c0.065,0.546,0.099,0.963,0.099,1.251   c0,0.216-0.012,0.426-0.036,0.63c-0.216,0.084-0.737,0.126-1.565,0.126c0.023-0.084,0.036-0.168,0.036-0.252   c0-0.3-0.192-0.618-0.576-0.954c0.072-0.132,0.107-0.288,0.107-0.468c0-0.096-0.012-0.243-0.035-0.441   c-0.024-0.198-0.036-0.345-0.036-0.44c0-0.324,0.119-0.576,0.359-0.757l-0.144-4.086c-0.312-0.035-0.478-0.197-0.495-0.485   s-0.033-0.576-0.045-0.864c0.3-0.324,0.678-0.486,1.134-0.486c0.468,0,0.847,0.162,1.134,0.486   c-0.035,0.132,0.048,0.312,0.252,0.54c0.253-0.24,0.498-0.479,0.738-0.72c0.336-0.276,0.672-0.384,1.008-0.324   c0.072-0.012,0.138-0.019,0.198-0.019c0.444,0,0.811,0.36,1.098,1.08V57.563z"
   id="path1029" />
	<path
   d="M94.11,60.821c-0.084,0.18-0.126,0.426-0.126,0.737c0,0.097,0.006,0.246,0.018,0.45c0,0.204,0,0.354,0,0.45   c0,0.552-0.18,0.888-0.54,1.008c-0.048,0-0.317,0-0.81,0c-0.336,0.012-0.594-0.03-0.774-0.126c0.096-0.12,0.145-0.27,0.145-0.45   c0-0.191-0.049-0.348-0.145-0.468c0.096-1.056,0.145-2.322,0.145-3.798c-0.013-2.652-0.019-3.894-0.019-3.726   c0.636-0.108,1.05-0.162,1.242-0.162c0.479,0,0.768,0.144,0.864,0.432c-0.145,0.24-0.165,0.609-0.063,1.107   c0.103,0.498,0.081,0.879-0.062,1.143c0.144,0.216,0.165,0.54,0.062,0.972c-0.102,0.433-0.081,0.75,0.063,0.954   c0.023,0.061,0.036,0.12,0.036,0.181c0,0.084-0.027,0.186-0.081,0.306c-0.055,0.12-0.081,0.21-0.081,0.27   c0,0.072,0.036,0.139,0.107,0.198c-0.071,0.036-0.107,0.084-0.107,0.145c0,0.035,0.023,0.096,0.072,0.18   C94.104,60.707,94.122,60.773,94.11,60.821z M94.002,53.153c-0.288,0.096-0.605,0.144-0.954,0.144c-0.636,0-0.978,0-1.025,0   c0.023-0.144,0.023-0.342,0-0.594c-0.013-0.336-0.019-0.54-0.019-0.612c0-0.372,0.084-0.63,0.252-0.773   c0.072-0.024,0.15-0.036,0.234-0.036c0.12,0,0.312,0.033,0.576,0.099c0.264,0.066,0.474,0.099,0.63,0.099   c0.096,0,0.191-0.012,0.288-0.035c0.096,0.155,0.144,0.336,0.144,0.54c0,0.12-0.024,0.309-0.071,0.566   C94.008,52.809,93.99,53.009,94.002,53.153z"
   id="path1031" />
	<path
   d="M100.05,59.777l-0.144,3.186c-0.132,0.108-0.336,0.145-0.612,0.108c-0.3-0.036-0.492-0.036-0.576,0l-0.09-0.126   c-0.06,0.096-0.12,0.144-0.18,0.144c-0.036,0-0.096-0.029-0.18-0.09c-0.084-0.06-0.156-0.09-0.216-0.09   c-0.049,0-0.091,0.012-0.127,0.036L97.8,59.903l0.396-0.271l-0.378-0.252c0.012,0.084,0.018-0.636,0.018-2.16   c0-0.852-0.149-1.542-0.449-2.069c-0.276,0.372-0.43,0.854-0.459,1.448c-0.03,0.595-0.046,1.174-0.046,1.737l-0.144,0.126   c0.072,0.024,0.12,0.15,0.144,0.378l-0.144,0.145c0.06,0.036,0.108,0.162,0.144,0.378l-0.018,1.458   c-0.096,0.156-0.144,0.33-0.144,0.521c0,0.12,0.026,0.304,0.08,0.549c0.055,0.246,0.081,0.43,0.081,0.55   c0,0.18-0.048,0.348-0.144,0.504c-0.012,0-0.264,0-0.756,0c-0.372,0-0.643-0.048-0.811-0.145c-0.06-0.18-0.09-0.365-0.09-0.558   c0-0.228,0.057-0.543,0.171-0.945c0.114-0.401,0.171-0.692,0.171-0.873c0-0.348-0.138-0.653-0.413-0.918   c0.287-0.54,0.432-1.151,0.432-1.836c0-0.132-0.006-0.27-0.019-0.414c0.24,0,0.396-0.149,0.469-0.45   c0.119-0.455,0.186-0.695,0.197-0.72l-0.287-1.728c0.228-0.108,0.443-0.162,0.647-0.162c0.276,0,0.462,0.096,0.558,0.288   c0,0.023,0,0.144,0,0.359c-0.012,0.145,0.03,0.246,0.126,0.307c0.324-0.42,0.774-0.738,1.351-0.954   c0.252,0.084,0.504,0.162,0.756,0.233c0.276,0.133,0.45,0.324,0.522,0.576c0,0.601,0,1.206,0,1.818c0,0.66,0.054,1.242,0.161,1.746   l-0.018,0.576C99.906,59.435,99.954,59.646,100.05,59.777z"
   id="path1033" />
	<path
   d="M106.476,61.199h-0.018c-0.084,0.228-0.126,0.594-0.126,1.098c0,0.048,0,0.123,0,0.226c0,0.102,0,0.177,0,0.225   c0,0.504-0.048,0.87-0.145,1.098c-0.144,0.324-0.414,0.486-0.81,0.486c-0.18,0-0.391-0.036-0.63-0.108   c-0.265,0.084-0.396-0.065-0.396-0.449c0-0.072,0.006-0.139,0.019-0.198c0-0.013,0-0.108,0-0.288c0-0.108-0.049-0.186-0.145-0.234   c-0.036,0.084-0.09,0.126-0.162,0.126c-0.035,0-0.093-0.021-0.171-0.062s-0.141-0.057-0.188-0.045   c-0.204,0.012-0.492,0.087-0.864,0.225s-0.672,0.207-0.9,0.207c-0.12,0-0.246-0.018-0.378-0.054   c-0.264-0.276-0.426-0.696-0.485-1.26c0-0.456-0.007-0.912-0.019-1.368l-0.144-5.958c0.204-0.084,0.516-0.126,0.936-0.126   s0.732-0.042,0.937-0.126l0.252,0.252c-0.097,0.84-0.139,1.974-0.126,3.401c0,1.969,0,3.036,0,3.204   c0.084,0.084,0.126,0.187,0.126,0.307c0,0.06-0.016,0.152-0.045,0.278c-0.03,0.126-0.045,0.22-0.045,0.279   c0,0.084,0.023,0.15,0.071,0.198c0.108,0.024,0.252-0.016,0.433-0.117c0.18-0.102,0.306-0.153,0.378-0.153   c0.084,0,0.168,0.042,0.252,0.126l0.288-0.252c0-0.096,0-0.99,0-2.682c0-1.068-0.049-1.932-0.145-2.592l-0.018-1.746   c0.396-0.096,0.75-0.145,1.062-0.145c0.312,0,0.666,0.049,1.062,0.145c-0.084,0.359-0.126,0.756-0.126,1.188   c0,0.312,0.029,0.783,0.09,1.413c0.06,0.63,0.09,1.107,0.09,1.432c0,0.264-0.012,0.516-0.036,0.756   c-0.084-0.024-0.18,0.018-0.288,0.126c0.288,0.096,0.433,0.336,0.433,0.72c0,0.061-0.007,0.126-0.019,0.198l-0.144,0.126   L106.476,61.199z"
   id="path1035" />
	<path
   d="M111.677,54.899v0.018c-0.107,0.684-0.155,1.158-0.144,1.422c-0.108,0.036-0.246,0.036-0.414,0   c-0.216-0.048-0.342-0.072-0.378-0.072c-0.096,0-0.174,0.03-0.234,0.091c-0.132-0.097-0.222-0.139-0.27-0.126   c-0.132,0.071-0.198,0.18-0.198,0.323c0,0.061,0.019,0.165,0.054,0.315c0.036,0.15,0.055,0.261,0.055,0.333   c0,0.096-0.027,0.246-0.081,0.45s-0.081,0.372-0.081,0.504c0,0.156,0.021,0.402,0.062,0.737c0.042,0.337,0.063,0.589,0.063,0.757   c-0.084,0.323-0.126,0.654-0.126,0.989c0,0.408,0.084,0.961,0.252,1.656c0.036,0.013,0.072,0.019,0.108,0.019   c0.083,0,0.186-0.055,0.306-0.162c0.12-0.108,0.222-0.162,0.306-0.162c0.061,0,0.126,0.018,0.198,0.054   c0.18,0.708,0.27,1.164,0.27,1.368c0,0.096-0.006,0.198-0.018,0.306c-0.324,0.061-0.546-0.06-0.666-0.359   c0.023-0.084-0.018-0.175-0.126-0.271l-0.378,0.36c0.348,0.072,0.474,0.348,0.378,0.828c-0.036,0.096-0.114,0.144-0.234,0.144   c-0.204-0.012-0.3-0.018-0.288-0.018l-0.27-0.54l-0.126,0.144c-0.084-0.252-0.192-0.378-0.324-0.378   c-0.072,0-0.201,0.054-0.387,0.162c-0.187,0.108-0.339,0.162-0.459,0.162c-0.097,0-0.192-0.03-0.288-0.09   c0-0.145-0.009-0.295-0.027-0.45c-0.018-0.156-0.093-0.258-0.225-0.306c0.012-0.372,0.072-1.351,0.18-2.935   c0.072-1.199,0.108-2.172,0.108-2.916c0-0.312-0.007-0.618-0.019-0.918c-0.06-0.096-0.12-0.144-0.18-0.144   c-0.048,0-0.123,0.048-0.225,0.144c-0.103,0.097-0.189,0.139-0.262,0.126c0-0.12-0.045-0.314-0.135-0.585   c-0.09-0.27-0.135-0.465-0.135-0.585c0-0.204,0.084-0.378,0.252-0.521l0.414,0.126c0.18-0.229,0.27-0.624,0.27-1.188   c0-0.108-0.006-0.279-0.018-0.513c-0.012-0.234-0.018-0.405-0.018-0.514c0-0.924,0.306-1.386,0.918-1.386   c0.228,0,0.504,0.054,0.827,0.162l0.396,0.126c0.023,0.156,0.036,0.318,0.036,0.486c0,0.228-0.027,0.561-0.081,0.999   c-0.054,0.438-0.081,0.759-0.081,0.963c0,0.324,0.042,0.618,0.126,0.882c0.096,0,0.249-0.045,0.459-0.135s0.362-0.135,0.459-0.135   C111.449,54.647,111.581,54.731,111.677,54.899z M110.363,56.123v-0.414l-0.126-0.126L110.363,56.123z"
   id="path1037" />
	<path
   d="M117.833,57.311c-0.084,0.156-0.126,0.324-0.126,0.505c0,0.18,0,0.354,0,0.521c-0.024,0.145-0.072,0.288-0.145,0.432   c-0.107-0.035-0.197-0.054-0.27-0.054c-0.084,0-0.171,0.027-0.261,0.081s-0.159,0.081-0.207,0.081c-0.072,0-0.168-0.029-0.288-0.09   l-0.774-1.26c0.012,0.359,0.078,0.678,0.198,0.954c0.06,0.144,0.12,0.287,0.18,0.432c-0.492,0.061-0.768,0.061-0.828,0   l-0.126,0.144l-0.27-0.396c-0.24,0.264-0.312,0.666-0.216,1.206c0.119,0.588,0.107,1.008-0.036,1.26   c0.168,0.276,0.378,0.414,0.63,0.414c0.108,0,0.204-0.036,0.288-0.108c0.132-0.288,0.264-0.575,0.396-0.863   c0.192-0.349,0.396-0.522,0.612-0.522c0.168,0,0.36,0.097,0.576,0.288c0.264,0.108,0.396,0.24,0.396,0.396   c0,0.096-0.068,0.249-0.206,0.459c-0.139,0.21-0.207,0.375-0.207,0.494c0,0.049,0.006,0.091,0.018,0.126   c-0.18,0.12-0.345,0.307-0.495,0.559s-0.339,0.42-0.567,0.504c-0.204,0.18-0.39,0.27-0.558,0.27c-0.132,0-0.324-0.11-0.576-0.333   c-0.252-0.222-0.492-0.333-0.72-0.333c-0.084-0.216-0.306-0.461-0.666-0.737s-0.576-0.564-0.648-0.864c0,0.024,0-0.072,0-0.288   c0-0.12-0.048-0.198-0.144-0.234l0.144-0.126c-0.18-0.012-0.27-0.119-0.27-0.323c0-0.024,0-0.072,0-0.145   c0.012-0.06,0.018-0.107,0.018-0.144c0-0.145-0.042-0.246-0.126-0.307v-0.63c0-0.323-0.054-0.558-0.161-0.702   c0.155-0.756,0.312-1.512,0.468-2.268c0.239-0.876,0.552-1.314,0.936-1.314c0.061,0,0.12,0.013,0.181,0.036   c0.359-0.323,0.785-0.485,1.277-0.485c0.54,0,1.128,0.191,1.765,0.576C117.491,55.385,117.761,56.315,117.833,57.311z    M115.457,55.205l-0.126,0.144c-0.084,0.013-0.18-0.035-0.288-0.144v0.414c-0.192,0.192-0.282,0.498-0.27,0.918   c0,0.72,0,1.068,0,1.044l0.539,0.018c0.265-0.132,0.396-0.365,0.396-0.701c0-0.168-0.045-0.447-0.135-0.838   C115.484,55.67,115.445,55.385,115.457,55.205z"
   id="path1039" />
	<path
   d="M123.521,60.281h0.019c0.012,0.132,0.018,0.264,0.018,0.396c0,0.648-0.192,1.309-0.576,1.98   c-0.048-0.024-0.096-0.036-0.144-0.036c-0.084,0-0.156,0.054-0.216,0.162c-0.084,0.144-0.139,0.228-0.162,0.252   c-0.408,0.24-0.84,0.33-1.296,0.27c-0.072,0.036-0.15,0.055-0.234,0.055c-0.12,0-0.314-0.075-0.585-0.226   c-0.27-0.149-0.489-0.213-0.657-0.188c-0.048-0.132-0.258-0.444-0.63-0.937c-0.24-0.336-0.342-0.684-0.306-1.044   c0.168-0.012,0.401-0.096,0.702-0.252c0.3-0.155,0.54-0.234,0.72-0.234c0.096,0,0.198,0.019,0.306,0.055   c-0.012,0.084-0.018,0.162-0.018,0.233c0,0.337,0.18,0.738,0.54,1.206c0.036-0.023,0.198-0.071,0.485-0.144   c0.204-0.06,0.312-0.18,0.324-0.36c0.048-0.815-0.132-1.302-0.54-1.458l-0.252-0.27c-0.036,0.096-0.09,0.144-0.162,0.144   c-0.036,0-0.096-0.023-0.18-0.071s-0.15-0.072-0.198-0.072c0.624-0.516,0.937-0.84,0.937-0.973c0-0.06-0.055-0.09-0.162-0.09   c-0.084,0-0.297,0.042-0.639,0.126c-0.343,0.084-0.573,0.126-0.693,0.126c-0.132,0-0.21-0.029-0.234-0.09   c-0.443-0.42-0.666-1.092-0.666-2.016c0-0.42,0.048-0.847,0.145-1.278c0.191-0.443,0.672-0.846,1.439-1.206   c0.396,0.048,0.973,0.174,1.729,0.378c0.552,0.553,0.828,1.152,0.828,1.8c0,0.145-0.013,0.295-0.036,0.45l-1.188,0.145   c-0.024-0.036-0.132-0.349-0.324-0.937c-0.119-0.371-0.317-0.588-0.594-0.647c-0.228,0.276-0.342,0.588-0.342,0.936   c0,0.252,0.065,0.511,0.198,0.774c0.312,0.204,0.485,0.324,0.521,0.359c0.156,0.156,0.24,0.343,0.252,0.559   c0.132,0.252,0.504,0.563,1.116,0.936C123.257,59.394,123.509,59.789,123.521,60.281z"
   id="path1041" />
</g>
<text
   xml:space="preserve"
   style="font-style:normal;font-variant:normal;font-weight:normal;font-stretch:normal;font-size:33.33333206px;line-height:1.25;font-family:Fredoka;-inkscape-font-specification:'Fredoka, Normal';font-variant-ligatures:normal;font-variant-caps:normal;font-variant-numeric:normal;font-feature-settings:normal;text-align:start;letter-spacing:0px;word-spacing:0px;writing-mode:lr-tb;text-anchor:start;fill:#000000;fill-opacity:1;stroke:none"
   x="66.461533"
   y="40.410255"
   id="text1597"><tspan
     sodipodi:role="line"
     id="tspan1595"
     x="66.461533"
     y="40.410255">5-60</tspan></text>
</svg>